<?xml version="1.0" standalone="no"?>
<!DOCTYPE svg PUBLIC "-//W3C//DTD SVG 20010904//EN"
 "http://www.w3.org/TR/2001/REC-SVG-20010904/DTD/svg10.dtd">
<svg version="1.0" xmlns="http://www.w3.org/2000/svg"
 width="840.000000pt" height="859.000000pt" viewBox="0 0 840.000000 859.000000"
 preserveAspectRatio="xMidYMid meet">

<g transform="translate(0.000000,859.000000) scale(0.100000,-0.100000)"
fill="#000000" stroke="none">
<path d="M36 4852 c-3 -3 -6 -25 -6 -48 l0 -43 230 -76 c321 -105 711 -221
1022 -305 146 -38 269 -70 274 -70 5 1 -130 50 -301 109 -404 142 -475 168
-826 301 -296 113 -383 143 -393 132z"/>
<path d="M30 4135 l0 -605 4173 2 4172 3 3 313 c1 171 0 312 -2 312 -3 0 -94
-11 -203 -25 -679 -84 -1262 -138 -1818 -165 -147 -8 -264 -19 -325 -32 -229
-47 -356 -70 -515 -93 -1065 -154 -2158 -54 -3441 314 -116 34 -298 81 -404
106 -464 109 -1028 271 -1500 430 -74 25 -135 45 -137 45 -2 0 -3 -272 -3
-605z"/>
<path d="M2970 4029 c142 -36 557 -107 805 -138 360 -46 515 -55 940 -55 403
-1 522 5 825 40 132 15 452 65 448 69 -2 2 -185 -1 -408 -6 -807 -20 -1775 16
-2495 91 -49 5 -103 9 -120 9 l-30 -1 35 -9z"/>
</g>
</svg>
